{
  "asset": {
    "version": "2.0",
    "generator": "Sketchup glTF Exporter by Evan Prananta."
  },
  "scene": 0,
  "scenes": [
    {
      "nodes": [
        0
      ]
    }
  ],
  "samplers": [
    {
    }
  ],
  "nodes": [
    {
      "name": "root",
      "mesh": 0
    }
  ],
  "materials": [
    {
      "pbrMetallicRoughness": {
        "baseColorTexture": {
          "index": 0
        },
        "metallicFactor": 0.1,
        "roughnessFactor": 0.9
      },
      "name": "4b53d10d8fafa0d1baf1e65195f33521 copy",
      "doubleSided": true,
      "alphaMode": "OPAQUE"
    },
    {
      "pbrMetallicRoughness": {
        "baseColorFactor": [
          0.4205,
          0.4647,
          0.4647,
          0.5
        ],
        "metallicFactor": 0.1,
        "roughnessFactor": 0.9
      },
      "name": "Material4",
      "doubleSided": true,
      "alphaMode": "BLEND"
    }
  ],
  "images": [
    {
      "bufferView": 0,
      "mimeType": "image/png"
    }
  ],
  "textures": [
    {
      "source": 0,
      "sampler": 0
    }
  ],
  "meshes": [
    {
      "primitives": [
        {
          "attributes": {
            "POSITION": 2,
            "NORMAL": 3,
            "TEXCOORD_0": 4
          },
          "indices": 5,
          "mode": 4,
          "material": 0
        },
        {
          "attributes": {
            "POSITION": 0,
            "NORMAL": 1
          },
          "indices": 6,
          "mode": 4,
          "material": 1
        }
      ]
    }
  ],
  "accessors": [
    {
      "bufferView": 1,
      "componentType": 5126,
      "count": 231,
      "type": "VEC3",
      "min": [
        0.765938668292155,
        0.6800000000000126,
        -2.818717691421748
      ],
      "max": [
        2.5641456007018415,
        0.7000000000000143,
        -1.020510759012062
      ]
    },
    {
      "bufferView": 2,
      "componentType": 5126,
      "count": 231,
      "type": "VEC3"
    },
    {
      "bufferView": 3,
      "componentType": 5126,
      "count": 1021,
      "type": "VEC3",
      "min": [
        0.765938668292155,
        1.282804680957587e-14,
        -2.818717691421748
      ],
      "max": [
        2.5641456007018415,
        0.680000000000014,
        -1.020510759012062
      ]
    },
    {
      "bufferView": 4,
      "componentType": 5126,
      "count": 1021,
      "type": "VEC3"
    },
    {
      "bufferView": 5,
      "componentType": 5126,
      "count": 1021,
      "type": "VEC2"
    },
    {
      "bufferView": 7,
      "componentType": 5123,
      "count": 1881,
      "type": "SCALAR"
    },
    {
      "bufferView": 6,
      "componentType": 5123,
      "count": 882,
      "type": "SCALAR"
    }
  ],
  "bufferViews": [
    {
      "buffer": 0,
      "byteLength": 167603
    },
    {
      "buffer": 0,
      "byteOffset": 167604,
      "byteLength": 2772,
      "target": 34962,
      "byteStride": 12
    },
    {
      "buffer": 0,
      "byteOffset": 170376,
      "byteLength": 2772,
      "target": 34962,
      "byteStride": 12
    },
    {
      "buffer": 0,
      "byteOffset": 173148,
      "byteLength": 12252,
      "target": 34962,
      "byteStride": 12
    },
    {
      "buffer": 0,
      "byteOffset": 185400,
      "byteLength": 12252,
      "target": 34962,
      "byteStride": 12
    },
    {
      "buffer": 0,
      "byteOffset": 197656,
      "byteLength": 8168,
      "target": 34962,
      "byteStride": 8
    },
    {
      "buffer": 0,
      "byteOffset": 205824,
      "byteLength": 1764,
      "target": 34963
    },
    {
      "buffer": 0,
      "byteOffset": 207588,
      "byteLength": 3762,
      "target": 34963
    }
  ],
  "buffers": [
    {
      "uri": "data:application/octet-stream;base64,",
      "byteLength": 211350
    }
  ]
}